<svg width="16" height="17" viewBox="0 0 16 17" fill="none" xmlns="http://www.w3.org/2000/svg">
<g clip-path="url(#clip0_801_31989)">
<path d="M6.66667 12.0847L13.0273 5.70219L11.9781 4.65301L6.66667 9.96448L4.10929 7.42896L3.06011 8.47814L6.66667 12.0847ZM1.48634 16.5C1.0929 16.5 0.746812 16.3506 0.448088 16.0519C0.149363 15.7532 0 15.4071 0 15.0137V1.98634C0 1.57832 0.149363 1.2286 0.448088 0.937158C0.746812 0.645719 1.0929 0.5 1.48634 0.5H14.5137C14.9217 0.5 15.2714 0.645719 15.5628 0.937158C15.8543 1.2286 16 1.57832 16 1.98634V15.0137C16 15.4071 15.8543 15.7532 15.5628 16.0519C15.2714 16.3506 14.9217 16.5 14.5137 16.5H1.48634ZM1.48634 15.0137H14.5137V1.98634H1.48634V15.0137ZM1.48634 1.98634V15.0137V1.98634Z" fill="#B4B4B4"/>
</g>
<defs>
<clipPath id="clip0_801_31989">
<rect width="16" height="16" fill="white" transform="translate(0 0.5)"/>
</clipPath>
</defs>
</svg>
