<svg width="22" height="22" viewBox="0 0 22 22" fill="none" xmlns="http://www.w3.org/2000/svg">
<g clip-path="url(#clip0_804_44114)">
<path d="M20.1667 9.85417V8.9375H16.5H12.6042V9.85417H16.5H20.1667ZM20.1667 4.125H1.83333C0.820417 4.125 0 4.94542 0 5.95833V18.7917C0 19.8046 0.820417 20.625 1.83333 20.625H20.1667C21.1796 20.625 21.9908 19.8046 21.9908 18.7917L22 5.95833C22 4.94542 21.1796 4.125 20.1667 4.125ZM7.33333 6.875C8.85042 6.875 10.0833 8.10792 10.0833 9.625C10.0833 11.1467 8.85042 12.375 7.33333 12.375C5.81625 12.375 4.58333 11.1467 4.58333 9.625C4.58333 8.10792 5.81625 6.875 7.33333 6.875ZM12.8333 17.875H1.83333V16.9583C1.83333 15.125 5.5 14.1167 7.33333 14.1167C9.16667 14.1167 12.8333 15.125 12.8333 16.9583V17.875ZM20.1667 12.375H12.8333V6.875H20.1667V12.375Z" fill="white"/>
<rect x="1.375" y="1.83337" width="19.25" height="1.375" fill="white"/>
</g>
<defs>
<clipPath id="clip0_804_44114">
<rect width="22" height="22" fill="white"/>
</clipPath>
</defs>
</svg>
