<svg width="22" height="22" viewBox="0 0 22 22" fill="none" xmlns="http://www.w3.org/2000/svg">
<g clip-path="url(#clip0_801_33706)">
<path d="M17.4167 2.75002H13.5804C13.2046 1.68669 12.1962 0.916687 11 0.916687C9.80375 0.916687 8.79542 1.68669 8.41958 2.75002H4.58333C3.57042 2.75002 2.75 3.57044 2.75 4.58335V17.4167C2.75 18.4296 3.57042 19.25 4.58333 19.25H17.4167C18.4296 19.25 19.25 18.4296 19.25 17.4167V4.58335C19.25 3.57044 18.4296 2.75002 17.4167 2.75002ZM11 2.75002C11.5042 2.75002 11.9167 3.15794 11.9167 3.66669C11.9167 4.17544 11.5042 4.58335 11 4.58335C10.4958 4.58335 10.0833 4.17544 10.0833 3.66669C10.0833 3.15794 10.4958 2.75002 11 2.75002ZM9.16667 15.5834L5.5 11.9167L6.79708 10.6196L9.16667 12.9892L15.2029 6.95294L16.5 8.25002L9.16667 15.5834Z" fill="white"/>
</g>
<defs>
<clipPath id="clip0_801_33706">
<rect width="22" height="22" fill="white"/>
</clipPath>
</defs>
</svg>
