<svg width="22" height="22" viewBox="0 0 22 22" fill="none" xmlns="http://www.w3.org/2000/svg">
<g clip-path="url(#clip0_804_46705)">
<path d="M4.58337 14.6667C4.58337 18.2096 7.45712 21.0833 11 21.0833C14.543 21.0833 17.4167 18.2096 17.4167 14.6667V11H4.58337V14.6667ZM14.7813 4.00583L16.7063 2.08083L15.95 1.32458L13.8371 3.4375C12.9755 3.01125 12.0221 2.75 11 2.75C9.97796 2.75 9.02462 3.01125 8.16296 3.4375L6.05004 1.32458L5.29379 2.08083L7.21879 4.00583C5.62837 5.17 4.58337 7.04 4.58337 9.16667V10.0833H17.4167V9.16667C17.4167 7.04 16.3717 5.17 14.7813 4.00583ZM8.25004 8.25C7.74129 8.25 7.33337 7.8375 7.33337 7.33333C7.33337 6.82917 7.74129 6.41667 8.25004 6.41667C8.75879 6.41667 9.16671 6.82917 9.16671 7.33333C9.16671 7.8375 8.75879 8.25 8.25004 8.25ZM13.75 8.25C13.2413 8.25 12.8334 7.8375 12.8334 7.33333C12.8334 6.82917 13.2413 6.41667 13.75 6.41667C14.2588 6.41667 14.6667 6.82917 14.6667 7.33333C14.6667 7.8375 14.2588 8.25 13.75 8.25Z" fill="white"/>
</g>
<defs>
<clipPath id="clip0_804_46705">
<rect width="22" height="22" fill="white"/>
</clipPath>
</defs>
</svg>
