<svg width="235" height="104" viewBox="0 0 235 104" fill="none" xmlns="http://www.w3.org/2000/svg">
<path d="M86.9299 48.361L58.8236 64.2166L67.2861 69.4713L86.4533 59.0292C84.814 67.221 80.3873 74.5918 73.9264 79.8879C67.4654 85.184 59.3692 88.0782 51.015 88.0782C42.6608 88.0782 34.5646 85.184 28.1036 79.8879C21.6426 74.5918 17.216 67.221 15.5766 59.0292L34.8966 69.343L43.2002 64.2166L15.0939 48.361C15.3624 45.5924 15.9551 42.865 16.8597 40.2346L50.9844 59.7135L85.1641 40.2285C86.0688 42.8589 86.6615 45.5863 86.9299 48.3549V48.361Z" fill="white"/>
<path d="M51.0271 15.825L20.0674 33.3303H40.1023V44.7561L50.8438 50.8784L61.8602 44.5972V33.3303H81.6324L81.9012 33.1775L51.0271 15.825Z" fill="white"/>
<path d="M112.458 61.4304C113.567 61.678 114.55 62.3181 115.225 63.2329C115.89 64.1751 116.233 65.3065 116.203 66.459C116.222 67.2401 116.074 68.0163 115.77 68.7359C115.465 69.4555 115.011 70.1019 114.437 70.6322C113.177 71.7661 111.524 72.3625 109.83 72.2941H100.115V52.5464H109.378C111.215 52.5464 112.641 53.0372 113.655 54.0189C114.138 54.4494 114.524 54.9776 114.787 55.5685C115.051 56.1595 115.186 56.7997 115.183 57.4467C115.183 58.3183 114.921 59.1698 114.431 59.8907C113.965 60.6114 113.27 61.1539 112.458 61.4304ZM108.443 56.744H105.016V60.0923H108.229C108.774 60.1291 109.312 59.9613 109.739 59.6218C109.911 59.4693 110.047 59.2807 110.138 59.0695C110.229 58.8583 110.272 58.6296 110.264 58.3998C110.267 58.1793 110.223 57.9607 110.137 57.7577C110.051 57.5547 109.924 57.3718 109.763 57.2206C109.585 57.0584 109.377 56.9328 109.151 56.851C108.924 56.7692 108.684 56.7329 108.443 56.744ZM105.016 68.011H108.761C109.385 68.0562 110.002 67.8543 110.478 67.4488C110.674 67.2739 110.829 67.059 110.935 66.8187C111.04 66.5783 111.093 66.3181 111.089 66.0557C111.093 65.7897 111.04 65.526 110.935 65.2817C110.83 65.0374 110.674 64.8181 110.478 64.6382C110.037 64.2474 109.46 64.0456 108.871 64.0761H105.016V68.011Z" fill="white"/>
<path d="M128.381 72.6181C127.009 72.6497 125.646 72.4034 124.372 71.8941C123.098 71.3849 121.941 70.6231 120.969 69.6547C119.068 67.7133 118.003 65.1042 118.003 62.3868C118.003 59.6694 119.068 57.0602 120.969 55.1189C122.951 53.2142 125.593 52.1504 128.341 52.1504C131.09 52.1504 133.731 53.2142 135.713 55.1189C137.163 56.5518 138.151 58.3857 138.55 60.3848C138.949 62.3838 138.741 64.4565 137.952 66.3363C137.164 68.2161 135.831 69.817 134.125 70.9332C132.42 72.0494 130.419 72.6298 128.381 72.5998V72.6181ZM128.381 67.6628C129.062 67.6755 129.738 67.5493 130.368 67.2919C130.998 67.0345 131.57 66.6514 132.047 66.1659C132.541 65.6723 132.929 65.0825 133.187 64.4331C133.444 63.7836 133.566 63.0882 133.544 62.3898C133.551 61.6895 133.418 60.9947 133.151 60.3471C132.885 59.6994 132.49 59.112 131.992 58.6199C131.512 58.1359 130.941 57.7517 130.312 57.4896C129.682 57.2274 129.007 57.0924 128.326 57.0924C127.644 57.0924 126.969 57.2274 126.34 57.4896C125.711 57.7517 125.14 58.1359 124.66 58.6199C123.704 59.6391 123.173 60.9837 123.173 62.3807C123.173 63.7776 123.704 65.1222 124.66 66.1414C125.137 66.6356 125.711 67.0258 126.346 67.2876C126.981 67.5494 127.663 67.6771 128.35 67.6628H128.381Z" fill="white"/>
<path d="M150.78 72.5875C149.445 72.6254 148.116 72.3963 146.871 71.9137C145.625 71.431 144.489 70.7046 143.528 69.7769C142.559 68.8243 141.8 67.6803 141.298 66.4179C140.796 65.1555 140.563 63.8024 140.613 62.4448C140.574 61.0907 140.81 59.7427 141.307 58.4825C141.804 57.2222 142.551 56.0759 143.504 55.1129C144.457 54.1498 145.595 53.3901 146.85 52.8797C148.105 52.3692 149.45 52.1187 150.805 52.1432C152.492 52.1236 154.161 52.4806 155.693 53.1881C157.11 53.8442 158.345 54.8362 159.292 56.0781L156.108 59.4203C154.577 57.791 152.917 56.9763 151.129 56.9763C150.419 56.9602 149.713 57.0896 149.056 57.3565C148.398 57.6234 147.802 58.0222 147.304 58.5283C146.799 59.049 146.404 59.6655 146.142 60.3413C145.88 61.017 145.755 61.7385 145.776 62.4631C145.757 63.1757 145.882 63.8847 146.145 64.5473C146.408 65.21 146.802 65.8126 147.304 66.3186C147.801 66.8164 148.395 67.2083 149.048 67.4708C149.701 67.7333 150.4 67.861 151.104 67.8461C152.09 67.8375 153.06 67.6034 153.941 67.1617C154.823 66.7201 155.591 66.0827 156.188 65.2982L159.505 68.4877C158.521 69.7396 157.268 70.7544 155.839 71.4571C154.266 72.2285 152.532 72.6159 150.78 72.5875Z" fill="white"/>
<path d="M165.476 72.2941H159.665L165.824 62.3225L160.178 52.5464H165.928L169.062 58.5953L172.49 52.5464H178.295L172.246 62.3225L178.16 72.3063H172.435L169.007 66.0679L165.476 72.2941Z" fill="white"/>
<path d="M188.516 72.6179C187.145 72.6492 185.782 72.4027 184.508 71.8935C183.234 71.3842 182.077 70.6226 181.105 69.6545C179.204 67.7132 178.139 65.104 178.139 62.3866C178.139 59.6693 179.204 57.0601 181.105 55.1187C183.087 53.2136 185.73 52.1497 188.48 52.1497C191.229 52.1497 193.872 53.2136 195.855 55.1187C197.306 56.5535 198.295 58.3902 198.693 60.3922C199.092 62.3941 198.881 64.4695 198.089 66.3506C197.296 68.2318 195.959 69.8324 194.248 70.9462C192.538 72.06 190.533 72.6359 188.492 72.5996L188.516 72.6179ZM188.516 67.6627C189.197 67.676 189.874 67.5502 190.504 67.2927C191.134 67.0353 191.706 66.6518 192.182 66.1657C192.678 65.6724 193.067 65.0829 193.325 64.4334C193.584 63.784 193.706 63.0884 193.686 62.3897C193.692 61.6895 193.558 60.9952 193.291 60.3477C193.024 59.7002 192.631 59.1127 192.134 58.6198C191.654 58.1358 191.083 57.7516 190.453 57.4894C189.824 57.2272 189.149 57.0923 188.468 57.0923C187.786 57.0923 187.111 57.2272 186.482 57.4894C185.853 57.7516 185.281 58.1358 184.801 58.6198C183.846 59.639 183.314 60.9836 183.314 62.3805C183.314 63.7775 183.846 65.1221 184.801 66.1413C185.278 66.6366 185.852 67.0276 186.487 67.2895C187.122 67.5514 187.805 67.6785 188.492 67.6627H188.516Z" fill="white"/>
<path d="M217.422 52.5464V67.6933H219.591V76.339H214.612V72.3247H204.707V76.339H199.703V67.6627H201.536C202.913 65.0435 203.903 60.9233 204.506 55.3021L204.829 52.5159L217.422 52.5464ZM206.693 67.6933H212.449V57.2023H209.155L208.966 58.4854C208.544 61.618 207.782 64.6953 206.693 67.6627V67.6933Z" fill="white"/>
<path d="M100.855 48.3305C100.554 48.3376 100.256 48.2704 99.9873 48.135L100.091 46.968C100.249 47.0367 100.42 47.0741 100.592 47.078C100.815 47.0723 101.031 46.9968 101.208 46.8619C101.386 46.727 101.517 46.5397 101.582 46.3264L99.749 42.4526H101.472L102.334 44.7195L103.097 42.4526H104.802L104.191 43.8457C103.684 45.0372 103.33 45.8437 103.128 46.2531C103.012 46.4975 102.938 46.638 102.914 46.6869C102.89 46.7358 102.792 46.9374 102.706 47.0963C102.63 47.2355 102.542 47.3683 102.444 47.4934C102.261 47.7367 102.036 47.944 101.778 48.1044C101.491 48.2496 101.176 48.327 100.855 48.3305Z" fill="white"/>
<path d="M106.776 48.2694H105.315V42.4526H110.283V48.2694H108.81V43.8579H106.776V48.2694Z" fill="white"/>
<path d="M111.426 42.4526H113.735C114.036 42.4334 114.337 42.4779 114.619 42.5832C114.902 42.6885 115.158 42.8522 115.373 43.0636C115.735 43.452 115.929 43.9685 115.911 44.4995C115.919 44.7602 115.874 45.0199 115.778 45.2627C115.683 45.5054 115.539 45.726 115.355 45.9109C115.117 46.1106 114.843 46.2615 114.547 46.3548C114.252 46.4481 113.94 46.4821 113.632 46.4547H112.892V48.2877H111.426V42.4526ZM112.892 45.1105H113.699C113.794 45.1166 113.89 45.1035 113.98 45.0721C114.07 45.0406 114.153 44.9913 114.224 44.9272C114.342 44.7977 114.408 44.6288 114.408 44.4536C114.408 44.2784 114.342 44.1096 114.224 43.9801C114.16 43.9171 114.083 43.8678 113.999 43.8353C113.915 43.8027 113.825 43.7876 113.735 43.7907H112.892V45.1105Z" fill="white"/>
<path d="M121.251 48.2694H119.748L119.406 47.2123H117.573L117.218 48.2694H115.709L117.823 42.4771H119.186L121.251 48.2694ZM117.933 45.9415H119.057L118.507 44.2245L117.933 45.9415Z" fill="white"/>
<path d="M125.467 45.0616C125.792 45.1366 126.08 45.3251 126.279 45.5932C126.473 45.8682 126.573 46.1979 126.566 46.5341C126.571 46.7629 126.527 46.99 126.437 47.2006C126.348 47.4112 126.215 47.6005 126.047 47.7562C125.677 48.0867 125.192 48.2598 124.697 48.2388H121.856V42.4526H124.568C125.017 42.4313 125.456 42.5871 125.79 42.8864C125.931 43.0125 126.044 43.1669 126.121 43.3397C126.198 43.5124 126.237 43.6994 126.236 43.8885C126.237 44.1435 126.16 44.3927 126.016 44.6034C125.891 44.8141 125.697 44.9757 125.467 45.0616ZM124.293 43.693H123.285V44.6706H124.226C124.386 44.6826 124.545 44.6347 124.672 44.5361C124.723 44.4911 124.763 44.4354 124.789 44.373C124.816 44.3107 124.828 44.2433 124.825 44.1757C124.826 44.1115 124.814 44.0478 124.789 43.9888C124.763 43.9298 124.726 43.8768 124.678 43.8335C124.627 43.7852 124.567 43.7478 124.5 43.7237C124.434 43.6995 124.364 43.6891 124.293 43.693ZM123.285 46.9924H124.385C124.567 47.0052 124.747 46.946 124.886 46.8274C124.943 46.779 124.989 46.7192 125.022 46.6519C125.055 46.5845 125.073 46.5112 125.076 46.4364C125.078 46.359 125.064 46.282 125.034 46.2104C125.005 46.1388 124.961 46.0742 124.904 46.0209C124.841 45.9637 124.766 45.9196 124.686 45.8913C124.605 45.863 124.519 45.851 124.434 45.8559H123.304L123.285 46.9924Z" fill="white"/>
<path d="M127.458 48.3366H127.134L126.822 47.1146H126.951C127.12 47.1173 127.286 47.073 127.432 46.9867C127.578 46.9004 127.696 46.7755 127.775 46.6258C127.969 46.2435 128.093 45.8297 128.142 45.4038C128.191 45.0494 128.228 44.7928 128.246 44.6217L128.356 43.5708L128.466 42.4404H132.26V48.2694H130.782V43.8641H129.786L129.731 44.3345C129.731 44.4018 129.731 44.5728 129.676 44.8539L129.621 45.3122C129.584 45.5688 129.56 45.7399 129.541 45.8132L129.45 46.247C129.401 46.4731 129.364 46.6258 129.34 46.6991C129.257 46.955 129.151 47.2026 129.022 47.4385C128.874 47.7214 128.648 47.9561 128.371 48.1152C128.093 48.2743 127.777 48.3511 127.458 48.3366Z" fill="white"/>
<path d="M135.597 42.4528H137.766V48.2696H136.324V46.4365C136.098 46.4734 135.869 46.4938 135.64 46.4976L134.626 48.2696H133.019L134.241 46.2227C133.914 46.0649 133.644 45.8112 133.466 45.4956C133.288 45.18 133.211 44.8176 133.245 44.4569C133.236 44.1857 133.286 43.9158 133.391 43.6658C133.497 43.4157 133.655 43.1916 133.856 43.0088C134.342 42.6052 134.967 42.4059 135.597 42.4528ZM135.664 45.2267C135.886 45.2249 136.106 45.2045 136.324 45.1656V43.7725H135.658C135.047 43.7725 134.754 44.0108 134.754 44.4935C134.754 44.9762 135.059 45.2145 135.664 45.2145V45.2267Z" fill="white"/>
<path d="M144.016 42.3487C144.418 42.339 144.816 42.4115 145.188 42.5617C145.56 42.712 145.898 42.9369 146.179 43.2224C146.605 43.6425 146.895 44.1807 147.012 44.7674C147.128 45.3542 147.066 45.9623 146.833 46.5133C146.6 47.0642 146.207 47.5325 145.705 47.8576C145.203 48.1826 144.615 48.3495 144.016 48.3365C143.333 48.3514 142.663 48.1362 142.116 47.7255C141.589 47.3199 141.219 46.7429 141.071 46.0941H140.35V48.2693H138.878V42.4525H140.35V44.6705H141.029C141.168 44.0096 141.536 43.419 142.067 43.0024C142.619 42.5599 143.31 42.3281 144.016 42.3487ZM144.016 46.8884C144.217 46.8927 144.417 46.8559 144.603 46.7803C144.789 46.7046 144.957 46.5917 145.098 46.4485C145.243 46.3041 145.357 46.1314 145.433 45.9412C145.508 45.7509 145.544 45.5472 145.538 45.3426C145.54 45.1384 145.501 44.9358 145.423 44.7469C145.346 44.558 145.231 44.3866 145.086 44.2428C144.947 44.1002 144.781 43.9877 144.597 43.912C144.413 43.8363 144.215 43.7992 144.016 43.8029C143.816 43.7999 143.618 43.8379 143.433 43.9146C143.248 43.9913 143.08 44.1051 142.941 44.2489C142.663 44.5475 142.508 44.9405 142.508 45.3487C142.508 45.7569 142.663 46.1499 142.941 46.4485C143.081 46.5912 143.248 46.7039 143.433 46.7795C143.618 46.8552 143.817 46.8922 144.016 46.8884Z" fill="white"/>
<path d="M156.047 49.4242H154.587V48.2694H147.866V42.4526H149.339V46.8397H150.891V42.4526H152.369V46.8397H153.909V42.4526H155.394V46.8397H156.005L156.047 49.4242Z" fill="white"/>
<path d="M161.9 48.2694H160.397L160.061 47.2123H158.228L157.874 48.2694H156.358L158.479 42.4771H159.841L161.9 48.2694ZM158.582 45.9415H159.707L159.157 44.2245L158.582 45.9415Z" fill="white"/>
<path d="M164.693 42.4527H166.862V48.2694H165.402V46.4364C165.177 46.473 164.951 46.4934 164.723 46.4975L163.721 48.2694H162.09L163.355 46.247C163.021 46.0904 162.745 45.8338 162.565 45.5129C162.384 45.1921 162.308 44.8229 162.346 44.4568C162.339 44.1857 162.389 43.9162 162.495 43.6664C162.6 43.4165 162.758 43.1923 162.957 43.0087C163.444 42.6099 164.065 42.4112 164.693 42.4527ZM164.79 45.2144C165.012 45.2126 165.233 45.1921 165.45 45.1533V43.7724H164.784C164.173 43.7724 163.886 44.0107 163.886 44.4934C163.886 44.9761 164.179 45.2144 164.79 45.2144Z" fill="white"/>
<path d="M175.105 48.2694H173.345L172.062 46.1859L171.451 46.9435V48.2694H169.984V42.4526H171.451V44.8356L173.284 42.4526H175.056L173.046 45.0189L175.105 48.2694Z" fill="white"/>
<path d="M177.945 48.3366C177.546 48.3449 177.15 48.2729 176.779 48.1249C176.409 47.9769 176.072 47.7559 175.788 47.4751C175.229 46.904 174.915 46.1362 174.915 45.3365C174.915 44.5369 175.229 43.7691 175.788 43.198C176.367 42.637 177.142 42.3232 177.948 42.3232C178.755 42.3232 179.529 42.637 180.108 43.198C180.675 43.7652 180.994 44.5344 180.994 45.3365C180.994 46.1386 180.675 46.9079 180.108 47.4751C179.826 47.759 179.488 47.982 179.116 48.1301C178.744 48.2783 178.345 48.3486 177.945 48.3366ZM177.945 46.8885C178.146 46.8928 178.345 46.8559 178.531 46.7803C178.717 46.7046 178.886 46.5917 179.027 46.4486C179.172 46.3041 179.286 46.1314 179.361 45.9412C179.437 45.751 179.473 45.5473 179.467 45.3426C179.467 44.9307 179.305 44.5352 179.014 44.2428C178.729 43.9596 178.344 43.8007 177.942 43.8007C177.54 43.8007 177.155 43.9596 176.87 44.2428C176.587 44.5394 176.43 44.9332 176.43 45.3426C176.43 45.7521 176.587 46.1459 176.87 46.4425C177.008 46.5855 177.175 46.6989 177.359 46.7755C177.542 46.8522 177.74 46.8907 177.939 46.8885H177.945Z" fill="white"/>
<path d="M183.255 48.2694H181.819V42.4526H182.901L184.984 45.4343L187.062 42.4526H188.156V48.2694H186.701V45.4649L185.253 47.4934H184.703L183.255 45.4649V48.2694Z" fill="white"/>
<path d="M190.764 48.2694H189.298V42.4526H194.265V48.2694H192.793V43.8579H190.764V48.2694Z" fill="white"/>
<path d="M200.4 48.2694H198.891L198.555 47.2123H196.722L196.368 48.2694H194.858L196.972 42.4771H198.335L200.4 48.2694ZM197.082 45.9415H198.201L197.657 44.2245L197.082 45.9415Z" fill="white"/>
<path d="M202.464 48.2694H200.998V42.4526H202.464V44.6645H204.505V42.4526H205.978V48.2694H204.505V46.0637H202.471L202.464 48.2694Z" fill="white"/>
<path d="M208.049 48.2694H207.114V42.4526H208.55V45.8254L211.226 42.4526H212.174V48.2694H210.738V44.9089L208.049 48.2694Z" fill="white"/>
<path d="M215.504 42.4526H217.673V48.2694H216.231V46.4364C216.007 46.473 215.78 46.4934 215.553 46.4975L214.508 48.2694H212.877L214.142 46.247C213.815 46.0899 213.544 45.8363 213.366 45.5206C213.188 45.2048 213.111 44.842 213.146 44.4812C213.138 44.2101 213.189 43.9406 213.294 43.6908C213.399 43.4409 213.557 43.2167 213.757 43.0331C214.243 42.6226 214.869 42.4148 215.504 42.4526ZM215.578 45.2266C215.797 45.2245 216.016 45.2041 216.231 45.1655V43.7724H215.565C214.954 43.7724 214.667 44.0107 214.667 44.4934C214.667 44.9761 214.942 45.2144 215.553 45.2144L215.578 45.2266Z" fill="white"/>
<path opacity="0.5" d="M153.811 26.0929H154.692L156.989 32H156.007L155.383 30.3943H153.103L152.488 32H151.498L153.811 26.0929ZM155.2 29.7037L154.251 27.1162L153.27 29.7037H155.2ZM158.06 32V27.6487H160.39C160.667 27.6487 160.895 27.7014 161.072 27.8068C161.255 27.9066 161.391 28.037 161.48 28.1978C161.569 28.3531 161.613 28.5251 161.613 28.7137C161.613 28.9522 161.557 29.1629 161.447 29.346C161.336 29.529 161.172 29.6677 160.956 29.762C161.205 29.8341 161.408 29.9616 161.563 30.1447C161.724 30.3222 161.804 30.5523 161.804 30.8352C161.804 31.0904 161.743 31.3067 161.621 31.4842C161.499 31.6561 161.324 31.7865 161.097 31.8752C160.875 31.9584 160.615 32 160.315 32H158.06ZM158.926 31.3677H160.29C160.407 31.3677 160.512 31.34 160.606 31.2845C160.706 31.2235 160.784 31.1458 160.839 31.0515C160.895 30.9517 160.922 30.8463 160.922 30.7354C160.922 30.6134 160.895 30.5052 160.839 30.4109C160.789 30.3166 160.717 30.2417 160.623 30.1863C160.534 30.1308 160.429 30.1031 160.307 30.1031H158.926V31.3677ZM158.926 29.5124H160.157C160.273 29.5124 160.376 29.4846 160.465 29.4292C160.554 29.3682 160.623 29.2877 160.673 29.1879C160.723 29.0881 160.748 28.9827 160.748 28.8717C160.748 28.7109 160.695 28.5722 160.59 28.4557C160.484 28.3393 160.346 28.281 160.174 28.281H158.926V29.5124ZM164.165 32V28.4557H162.725V27.6487H166.527V28.4557H165.08V32H164.165ZM169.624 32.0832C169.28 32.0832 168.973 32.025 168.701 31.9085C168.429 31.7865 168.193 31.6201 167.994 31.4093C167.799 31.1985 167.65 30.96 167.544 30.6938C167.439 30.422 167.386 30.1336 167.386 29.8285C167.386 29.5235 167.439 29.235 167.544 28.9633C167.65 28.6915 167.799 28.453 167.994 28.2477C168.193 28.037 168.429 27.8734 168.701 27.7569C168.978 27.6349 169.286 27.5738 169.624 27.5738C169.963 27.5738 170.268 27.6349 170.539 27.7569C170.817 27.8734 171.053 28.037 171.247 28.2477C171.446 28.453 171.599 28.6915 171.704 28.9633C171.81 29.235 171.862 29.5235 171.862 29.8285C171.862 30.1336 171.81 30.422 171.704 30.6938C171.599 30.96 171.446 31.1985 171.247 31.4093C171.053 31.6201 170.817 31.7865 170.539 31.9085C170.268 32.025 169.963 32.0832 169.624 32.0832ZM168.326 29.8368C168.326 30.1142 168.385 30.3638 168.501 30.5856C168.618 30.8075 168.773 30.9822 168.967 31.1098C169.161 31.2373 169.38 31.3011 169.624 31.3011C169.863 31.3011 170.079 31.2373 170.273 31.1098C170.473 30.9767 170.631 30.7992 170.747 30.5773C170.864 30.3499 170.922 30.1003 170.922 29.8285C170.922 29.5512 170.864 29.3016 170.747 29.0797C170.631 28.8579 170.473 28.6832 170.273 28.5556C170.079 28.4225 169.863 28.3559 169.624 28.3559C169.38 28.3559 169.161 28.4225 168.967 28.5556C168.773 28.6887 168.618 28.8662 168.501 29.0881C168.385 29.3044 168.326 29.554 168.326 29.8368ZM173.132 32V27.6487H174.08L175.578 30.336L177.084 27.6487H178.015V32H177.142V28.9383L175.861 31.2263H175.286L173.997 28.9383V32H173.132ZM179.253 30.7271C179.253 30.4497 179.331 30.2085 179.486 30.0032C179.647 29.7925 179.866 29.6316 180.143 29.5207C180.42 29.4042 180.742 29.346 181.108 29.346C181.302 29.346 181.499 29.3598 181.699 29.3876C181.904 29.4153 182.084 29.4597 182.24 29.5207V29.2461C182.24 28.9411 182.148 28.7026 181.965 28.5306C181.782 28.3587 181.519 28.2727 181.175 28.2727C180.931 28.2727 180.701 28.3171 180.484 28.4058C180.268 28.489 180.038 28.6083 179.794 28.7636L179.486 28.1479C179.774 27.9538 180.063 27.8096 180.351 27.7153C180.645 27.621 180.953 27.5738 181.275 27.5738C181.857 27.5738 182.315 27.7291 182.647 28.0398C182.986 28.3448 183.155 28.7802 183.155 29.346V30.9683C183.155 31.0737 183.172 31.1486 183.205 31.193C183.244 31.2373 183.307 31.2623 183.396 31.2679V32C183.313 32.0166 183.238 32.0277 183.172 32.0333C183.105 32.0388 183.05 32.0416 183.005 32.0416C182.811 32.0416 182.664 31.9945 182.564 31.9002C182.464 31.8059 182.406 31.6949 182.39 31.5674L182.365 31.3178C182.176 31.5618 181.935 31.7504 181.641 31.8835C181.347 32.0166 181.05 32.0832 180.751 32.0832C180.462 32.0832 180.204 32.025 179.977 31.9085C179.749 31.7865 179.572 31.6228 179.444 31.4176C179.317 31.2124 179.253 30.9822 179.253 30.7271ZM182.023 30.9933C182.09 30.9212 182.143 30.8491 182.182 30.777C182.22 30.7049 182.24 30.6411 182.24 30.5856V30.0864C182.084 30.0254 181.921 29.981 181.749 29.9533C181.577 29.92 181.408 29.9034 181.241 29.9034C180.909 29.9034 180.637 29.97 180.426 30.1031C180.221 30.2362 180.118 30.4192 180.118 30.6522C180.118 30.7798 180.151 30.9018 180.218 31.0183C180.29 31.1347 180.39 31.229 180.518 31.3011C180.651 31.3732 180.814 31.4093 181.008 31.4093C181.208 31.4093 181.399 31.3705 181.583 31.2928C181.766 31.2152 181.913 31.1153 182.023 30.9933ZM185.706 32V28.4557H184.266V27.6487H188.069V28.4557H186.621V32H185.706ZM189.21 32V27.657H190.126V30.777L192.33 27.6487H193.162V32H192.247V28.9466L190.067 32H189.21ZM196.169 32.0666C195.726 32.0666 195.351 31.9861 195.046 31.8253C194.747 31.6589 194.517 31.4315 194.356 31.1431L195.096 30.8103C195.191 30.9711 195.324 31.0987 195.496 31.193C195.668 31.2817 195.876 31.3261 196.12 31.3261C196.414 31.3261 196.641 31.2651 196.802 31.1431C196.963 31.021 197.043 30.8602 197.043 30.6605C197.043 30.4775 196.977 30.3305 196.843 30.2196C196.71 30.1031 196.522 30.0421 196.278 30.0365H195.828V29.4541H196.294C196.405 29.4541 196.502 29.4292 196.585 29.3792C196.669 29.3293 196.732 29.2628 196.777 29.1796C196.827 29.0908 196.852 28.991 196.852 28.8801C196.852 28.7137 196.788 28.5805 196.66 28.4807C196.538 28.3753 196.353 28.3226 196.103 28.3226C195.887 28.3226 195.709 28.3642 195.57 28.4474C195.432 28.5251 195.318 28.6416 195.229 28.7969L194.539 28.4308C194.683 28.1645 194.894 27.9566 195.171 27.8068C195.448 27.657 195.773 27.5822 196.145 27.5822C196.438 27.5822 196.699 27.6293 196.927 27.7236C197.16 27.8123 197.34 27.9455 197.467 28.1229C197.6 28.2949 197.667 28.5084 197.667 28.7636C197.667 28.9633 197.62 29.1518 197.526 29.3293C197.431 29.5013 197.284 29.6288 197.085 29.712C197.351 29.7897 197.551 29.9256 197.684 30.1197C197.822 30.3083 197.892 30.5329 197.892 30.7936C197.892 31.0599 197.817 31.29 197.667 31.4842C197.523 31.6728 197.32 31.817 197.06 31.9168C196.799 32.0166 196.502 32.0666 196.169 32.0666ZM198.877 30.7271C198.877 30.4497 198.954 30.2085 199.11 30.0032C199.271 29.7925 199.49 29.6316 199.767 29.5207C200.044 29.4042 200.366 29.346 200.732 29.346C200.926 29.346 201.123 29.3598 201.323 29.3876C201.528 29.4153 201.708 29.4597 201.864 29.5207V29.2461C201.864 28.9411 201.772 28.7026 201.589 28.5306C201.406 28.3587 201.143 28.2727 200.799 28.2727C200.555 28.2727 200.324 28.3171 200.108 28.4058C199.892 28.489 199.662 28.6083 199.418 28.7636L199.11 28.1479C199.398 27.9538 199.687 27.8096 199.975 27.7153C200.269 27.621 200.577 27.5738 200.898 27.5738C201.481 27.5738 201.938 27.7291 202.271 28.0398C202.61 28.3448 202.779 28.7802 202.779 29.346V30.9683C202.779 31.0737 202.795 31.1486 202.829 31.193C202.867 31.2373 202.931 31.2623 203.02 31.2679V32C202.937 32.0166 202.862 32.0277 202.795 32.0333C202.729 32.0388 202.673 32.0416 202.629 32.0416C202.435 32.0416 202.288 31.9945 202.188 31.9002C202.088 31.8059 202.03 31.6949 202.013 31.5674L201.988 31.3178C201.8 31.5618 201.559 31.7504 201.265 31.8835C200.971 32.0166 200.674 32.0832 200.374 32.0832C200.086 32.0832 199.828 32.025 199.601 31.9085C199.373 31.7865 199.196 31.6228 199.068 31.4176C198.941 31.2124 198.877 30.9822 198.877 30.7271ZM201.647 30.9933C201.714 30.9212 201.767 30.8491 201.805 30.777C201.844 30.7049 201.864 30.6411 201.864 30.5856V30.0864C201.708 30.0254 201.545 29.981 201.373 29.9533C201.201 29.92 201.032 29.9034 200.865 29.9034C200.532 29.9034 200.261 29.97 200.05 30.1031C199.845 30.2362 199.742 30.4192 199.742 30.6522C199.742 30.7798 199.775 30.9018 199.842 31.0183C199.914 31.1347 200.014 31.229 200.141 31.3011C200.274 31.3732 200.438 31.4093 200.632 31.4093C200.832 31.4093 201.023 31.3705 201.206 31.2928C201.389 31.2152 201.536 31.1153 201.647 30.9933ZM207.758 33.04V32H204.347V27.6487H205.262V31.2013H207.042V27.6487H207.957V31.2013H208.565V33.04H207.758ZM209.793 32V27.657H210.708V30.777L212.913 27.6487H213.745V32H212.83V28.9466L210.65 32H209.793ZM215.021 32L216.186 30.2778C215.914 30.2112 215.698 30.0726 215.537 29.8618C215.376 29.651 215.296 29.3682 215.296 29.0132C215.296 28.7414 215.357 28.5029 215.479 28.2977C215.607 28.0924 215.784 27.9316 216.012 27.8151C216.239 27.6986 216.502 27.6404 216.802 27.6404H218.715V32H217.8V30.4275H217.085L216.02 32H215.021ZM216.893 29.762H217.8V28.3476H216.952C216.719 28.3476 216.533 28.4114 216.394 28.5389C216.261 28.6665 216.195 28.8329 216.195 29.0381C216.195 29.2434 216.253 29.4153 216.369 29.554C216.491 29.6926 216.666 29.762 216.893 29.762Z" fill="white"/>
<path opacity="0.5" d="M137.507 89.921V89.1389H137.931C138.07 89.1389 138.175 89.1056 138.248 89.0391C138.32 88.9725 138.389 88.8727 138.456 88.7396L138.63 88.3568L136.226 83.9806H137.258L139.055 87.4001L140.577 83.9806H141.567L139.171 89.1805C139.038 89.4523 138.891 89.6436 138.73 89.7546C138.575 89.8655 138.361 89.921 138.09 89.921H137.507ZM142.49 89.8877V85.5364H143.438L144.936 88.2237L146.442 85.5364H147.373V89.8877H146.5V86.826L145.219 89.1139H144.645L143.355 86.826V89.8877H142.49ZM148.927 89.8877V85.5364H149.842V87.2669H151.864V85.5364H152.779V89.8877H151.864V88.0573H149.842V89.8877H148.927ZM154.341 89.8877V85.5364H155.256V86.9674H156.08C156.596 86.9674 156.989 87.0978 157.261 87.3585C157.533 87.6191 157.669 87.963 157.669 88.3901C157.669 88.6785 157.611 88.9365 157.494 89.1639C157.378 89.3913 157.206 89.5688 156.978 89.6963C156.757 89.8239 156.479 89.8877 156.146 89.8877H154.341ZM155.256 89.1805H156.005C156.188 89.1805 156.335 89.1472 156.446 89.0807C156.557 89.0086 156.637 88.9143 156.687 88.7978C156.743 88.6758 156.77 88.5454 156.77 88.4068C156.77 88.2681 156.745 88.1433 156.695 88.0324C156.646 87.9159 156.562 87.8244 156.446 87.7578C156.335 87.6857 156.185 87.6497 155.997 87.6497H155.256V89.1805ZM158.384 89.8877V85.5447H159.3V89.8877H158.384ZM162.832 89.9709C162.493 89.9709 162.185 89.9127 161.908 89.7962C161.636 89.6742 161.4 89.5105 161.201 89.3053C161.001 89.0945 160.846 88.856 160.735 88.5898C160.63 88.318 160.577 88.0296 160.577 87.7245C160.577 87.3141 160.671 86.9397 160.86 86.6014C161.048 86.2575 161.312 85.9829 161.65 85.7777C161.988 85.5669 162.385 85.4615 162.84 85.4615C163.295 85.4615 163.686 85.5669 164.013 85.7777C164.346 85.9829 164.604 86.2547 164.787 86.593C164.97 86.9314 165.061 87.2947 165.061 87.6829C165.061 87.7495 165.058 87.8133 165.053 87.8743C165.047 87.9298 165.042 87.9769 165.036 88.0157H161.55C161.567 88.2709 161.636 88.4955 161.758 88.6896C161.886 88.8782 162.047 89.028 162.241 89.1389C162.435 89.2443 162.643 89.297 162.865 89.297C163.109 89.297 163.339 89.236 163.555 89.1139C163.777 88.9919 163.927 88.8311 164.005 88.6314L164.787 88.856C164.692 89.0668 164.548 89.2582 164.354 89.4301C164.165 89.5965 163.941 89.7296 163.68 89.8295C163.419 89.9237 163.137 89.9709 162.832 89.9709ZM161.525 87.4084H164.154C164.138 87.1588 164.066 86.9397 163.938 86.7511C163.816 86.557 163.658 86.4072 163.464 86.3018C163.275 86.1909 163.064 86.1354 162.832 86.1354C162.604 86.1354 162.393 86.1909 162.199 86.3018C162.011 86.4072 161.855 86.557 161.733 86.7511C161.611 86.9397 161.542 87.1588 161.525 87.4084ZM171.25 89.9709C170.9 89.9709 170.592 89.8877 170.326 89.7213C170.06 89.5549 169.849 89.3386 169.694 89.0723V91.6598H168.779V85.5364H169.586V86.3185C169.752 86.0578 169.968 85.8498 170.234 85.6945C170.501 85.5392 170.797 85.4615 171.125 85.4615C171.424 85.4615 171.699 85.5225 171.948 85.6446C172.198 85.761 172.414 85.9247 172.597 86.1354C172.78 86.3462 172.922 86.5875 173.022 86.8593C173.127 87.1255 173.18 87.4084 173.18 87.7079C173.18 88.1239 173.097 88.5038 172.93 88.8477C172.769 89.1916 172.542 89.4662 172.248 89.6714C171.959 89.8711 171.627 89.9709 171.25 89.9709ZM170.95 89.1888C171.144 89.1888 171.319 89.1472 171.474 89.064C171.635 88.9808 171.771 88.8699 171.882 88.7312C171.998 88.5926 172.087 88.4345 172.148 88.257C172.209 88.0795 172.24 87.8965 172.24 87.7079C172.24 87.5082 172.206 87.3196 172.14 87.1421C172.073 86.9647 171.976 86.8094 171.849 86.6762C171.727 86.5431 171.582 86.4377 171.416 86.3601C171.255 86.2824 171.078 86.2436 170.883 86.2436C170.767 86.2436 170.645 86.2658 170.517 86.3102C170.39 86.3545 170.271 86.4155 170.16 86.4932C170.049 86.5708 169.952 86.6624 169.868 86.7678C169.785 86.8731 169.727 86.9841 169.694 87.1005V88.2404C169.771 88.4179 169.874 88.5787 170.002 88.7229C170.129 88.8616 170.276 88.9753 170.442 89.064C170.609 89.1472 170.778 89.1888 170.95 89.1888ZM174.144 88.6148C174.144 88.3374 174.222 88.0962 174.377 87.8909C174.538 87.6802 174.757 87.5193 175.034 87.4084C175.312 87.2919 175.633 87.2337 176 87.2337C176.194 87.2337 176.391 87.2475 176.59 87.2753C176.795 87.303 176.976 87.3474 177.131 87.4084V87.1338C177.131 86.8288 177.04 86.5903 176.857 86.4183C176.673 86.2464 176.41 86.1604 176.066 86.1604C175.822 86.1604 175.592 86.2048 175.376 86.2935C175.159 86.3767 174.929 86.496 174.685 86.6513L174.377 86.0356C174.666 85.8415 174.954 85.6973 175.242 85.603C175.536 85.5087 175.844 85.4615 176.166 85.4615C176.748 85.4615 177.206 85.6168 177.539 85.9274C177.877 86.2325 178.046 86.6679 178.046 87.2337V88.856C178.046 88.9614 178.063 89.0363 178.096 89.0807C178.135 89.125 178.199 89.15 178.288 89.1555V89.8877C178.204 89.9043 178.129 89.9154 178.063 89.921C177.996 89.9265 177.941 89.9293 177.896 89.9293C177.702 89.9293 177.555 89.8821 177.456 89.7879C177.356 89.6936 177.297 89.5826 177.281 89.4551L177.256 89.2055C177.067 89.4495 176.826 89.6381 176.532 89.7712C176.238 89.9043 175.941 89.9709 175.642 89.9709C175.353 89.9709 175.095 89.9127 174.868 89.7962C174.641 89.6742 174.463 89.5105 174.336 89.3053C174.208 89.1001 174.144 88.8699 174.144 88.6148ZM176.915 88.881C176.981 88.8089 177.034 88.7368 177.073 88.6647C177.112 88.5926 177.131 88.5288 177.131 88.4733V87.9741C176.976 87.9131 176.812 87.8687 176.64 87.841C176.468 87.8077 176.299 87.7911 176.133 87.7911C175.8 87.7911 175.528 87.8577 175.317 87.9908C175.112 88.1239 175.009 88.3069 175.009 88.5399C175.009 88.6675 175.043 88.7895 175.109 88.906C175.181 89.0224 175.281 89.1167 175.409 89.1888C175.542 89.2609 175.706 89.297 175.9 89.297C176.099 89.297 176.291 89.2582 176.474 89.1805C176.657 89.1029 176.804 89.003 176.915 88.881ZM181.07 89.9543C180.626 89.9543 180.252 89.8738 179.947 89.713C179.647 89.5466 179.417 89.3192 179.256 89.0308L179.997 88.698C180.091 88.8588 180.224 88.9864 180.396 89.0807C180.568 89.1694 180.776 89.2138 181.02 89.2138C181.314 89.2138 181.542 89.1528 181.702 89.0308C181.863 88.9087 181.944 88.7479 181.944 88.5482C181.944 88.3652 181.877 88.2182 181.744 88.1072C181.611 87.9908 181.422 87.9298 181.178 87.9242H180.729V87.3418H181.195C181.306 87.3418 181.403 87.3169 181.486 87.2669C181.569 87.217 181.633 87.1505 181.677 87.0673C181.727 86.9785 181.752 86.8787 181.752 86.7678C181.752 86.6014 181.689 86.4682 181.561 86.3684C181.439 86.263 181.253 86.2103 181.004 86.2103C180.787 86.2103 180.61 86.2519 180.471 86.3351C180.332 86.4128 180.219 86.5292 180.13 86.6846L179.439 86.3185C179.584 86.0522 179.794 85.8442 180.072 85.6945C180.349 85.5447 180.674 85.4699 181.045 85.4699C181.339 85.4699 181.6 85.517 181.827 85.6113C182.06 85.7 182.24 85.8332 182.368 86.0106C182.501 86.1826 182.568 86.3961 182.568 86.6513C182.568 86.8509 182.521 87.0395 182.426 87.217C182.332 87.389 182.185 87.5165 181.985 87.5997C182.252 87.6774 182.451 87.8133 182.584 88.0074C182.723 88.196 182.792 88.4206 182.792 88.6813C182.792 88.9476 182.717 89.1777 182.568 89.3719C182.423 89.5604 182.221 89.7047 181.96 89.8045C181.7 89.9043 181.403 89.9543 181.07 89.9543ZM186.565 89.9709C186.215 89.9709 185.907 89.8877 185.641 89.7213C185.375 89.5549 185.164 89.3386 185.009 89.0723V91.6598H184.094V85.5364H184.901V86.3185C185.067 86.0578 185.283 85.8498 185.55 85.6945C185.816 85.5392 186.112 85.4615 186.44 85.4615C186.739 85.4615 187.014 85.5225 187.263 85.6446C187.513 85.761 187.729 85.9247 187.912 86.1354C188.095 86.3462 188.237 86.5875 188.337 86.8593C188.442 87.1255 188.495 87.4084 188.495 87.7079C188.495 88.1239 188.412 88.5038 188.245 88.8477C188.084 89.1916 187.857 89.4662 187.563 89.6714C187.274 89.8711 186.942 89.9709 186.565 89.9709ZM186.265 89.1888C186.459 89.1888 186.634 89.1472 186.789 89.064C186.95 88.9808 187.086 88.8699 187.197 88.7312C187.313 88.5926 187.402 88.4345 187.463 88.257C187.524 88.0795 187.555 87.8965 187.555 87.7079C187.555 87.5082 187.521 87.3196 187.455 87.1421C187.388 86.9647 187.291 86.8094 187.164 86.6762C187.042 86.5431 186.897 86.4377 186.731 86.3601C186.57 86.2824 186.393 86.2436 186.198 86.2436C186.082 86.2436 185.96 86.2658 185.832 86.3102C185.705 86.3545 185.586 86.4155 185.475 86.4932C185.364 86.5708 185.267 86.6624 185.183 86.7678C185.1 86.8731 185.042 86.9841 185.009 87.1005V88.2404C185.086 88.4179 185.189 88.5787 185.317 88.7229C185.444 88.8616 185.591 88.9753 185.758 89.064C185.924 89.1472 186.093 89.1888 186.265 89.1888ZM189.459 88.6148C189.459 88.3374 189.537 88.0962 189.692 87.8909C189.853 87.6802 190.072 87.5193 190.349 87.4084C190.627 87.2919 190.949 87.2337 191.315 87.2337C191.509 87.2337 191.706 87.2475 191.905 87.2753C192.111 87.303 192.291 87.3474 192.446 87.4084V87.1338C192.446 86.8288 192.355 86.5903 192.172 86.4183C191.988 86.2464 191.725 86.1604 191.381 86.1604C191.137 86.1604 190.907 86.2048 190.691 86.2935C190.474 86.3767 190.244 86.496 190 86.6513L189.692 86.0356C189.981 85.8415 190.269 85.6973 190.557 85.603C190.851 85.5087 191.159 85.4615 191.481 85.4615C192.063 85.4615 192.521 85.6168 192.854 85.9274C193.192 86.2325 193.361 86.6679 193.361 87.2337V88.856C193.361 88.9614 193.378 89.0363 193.411 89.0807C193.45 89.125 193.514 89.15 193.603 89.1555V89.8877C193.519 89.9043 193.444 89.9154 193.378 89.921C193.311 89.9265 193.256 89.9293 193.212 89.9293C193.017 89.9293 192.87 89.8821 192.771 89.7879C192.671 89.6936 192.612 89.5826 192.596 89.4551L192.571 89.2055C192.382 89.4495 192.141 89.6381 191.847 89.7712C191.553 89.9043 191.256 89.9709 190.957 89.9709C190.668 89.9709 190.41 89.9127 190.183 89.7962C189.956 89.6742 189.778 89.5105 189.651 89.3053C189.523 89.1001 189.459 88.8699 189.459 88.6148ZM192.23 88.881C192.296 88.8089 192.349 88.7368 192.388 88.6647C192.427 88.5926 192.446 88.5288 192.446 88.4733V87.9741C192.291 87.9131 192.127 87.8687 191.955 87.841C191.783 87.8077 191.614 87.7911 191.448 87.7911C191.115 87.7911 190.843 87.8577 190.632 87.9908C190.427 88.1239 190.325 88.3069 190.325 88.5399C190.325 88.6675 190.358 88.7895 190.424 88.906C190.496 89.0224 190.596 89.1167 190.724 89.1888C190.857 89.2609 191.021 89.297 191.215 89.297C191.414 89.297 191.606 89.2582 191.789 89.1805C191.972 89.1029 192.119 89.003 192.23 88.881ZM197.034 89.9709C196.307 89.9709 195.756 89.7518 195.378 89.3136C195.001 88.8754 194.813 88.2487 194.813 87.4333C194.813 86.9009 194.857 86.4516 194.946 86.0855C195.04 85.7139 195.176 85.4088 195.353 85.1703C195.537 84.9318 195.761 84.7377 196.027 84.588C196.299 84.4326 196.613 84.3078 196.968 84.2136L198.823 83.6977L198.856 84.4632L197.034 84.979C196.746 85.0677 196.499 85.1842 196.294 85.3284C196.094 85.4726 195.936 85.6612 195.819 85.8942C195.703 86.1216 195.625 86.41 195.586 86.7594C195.742 86.4766 195.964 86.2547 196.252 86.0938C196.54 85.933 196.882 85.8526 197.275 85.8526C197.68 85.8526 198.03 85.9385 198.324 86.1105C198.618 86.2769 198.845 86.5098 199.006 86.8094C199.167 87.1089 199.247 87.4528 199.247 87.841C199.247 88.2626 199.161 88.6342 198.989 88.9559C198.823 89.272 198.573 89.5216 198.24 89.7047C197.913 89.8821 197.511 89.9709 197.034 89.9709ZM197.034 89.1888C197.439 89.1888 197.752 89.0696 197.974 88.8311C198.202 88.5926 198.315 88.2764 198.315 87.8826C198.315 87.5054 198.202 87.1976 197.974 86.9591C197.752 86.7151 197.439 86.593 197.034 86.593C196.796 86.593 196.579 86.6457 196.385 86.7511C196.191 86.8509 196.038 86.9979 195.928 87.1921C195.817 87.3806 195.761 87.6108 195.761 87.8826C195.761 88.1378 195.811 88.3652 195.911 88.5648C196.011 88.759 196.155 88.9115 196.344 89.0224C196.532 89.1334 196.762 89.1888 197.034 89.1888ZM202.485 89.9709C202.141 89.9709 201.833 89.9127 201.561 89.7962C201.29 89.6742 201.054 89.5078 200.854 89.297C200.66 89.0862 200.51 88.8477 200.405 88.5815C200.3 88.3097 200.247 88.0213 200.247 87.7162C200.247 87.4112 200.3 87.1227 200.405 86.8509C200.51 86.5792 200.66 86.3407 200.854 86.1354C201.054 85.9247 201.29 85.761 201.561 85.6446C201.839 85.5225 202.147 85.4615 202.485 85.4615C202.823 85.4615 203.128 85.5225 203.4 85.6446C203.677 85.761 203.913 85.9247 204.107 86.1354C204.307 86.3407 204.46 86.5792 204.565 86.8509C204.67 87.1227 204.723 87.4112 204.723 87.7162C204.723 88.0213 204.67 88.3097 204.565 88.5815C204.46 88.8477 204.307 89.0862 204.107 89.297C203.913 89.5078 203.677 89.6742 203.4 89.7962C203.128 89.9127 202.823 89.9709 202.485 89.9709ZM201.187 87.7245C201.187 88.0019 201.245 88.2515 201.362 88.4733C201.478 88.6952 201.634 88.8699 201.828 88.9975C202.022 89.125 202.241 89.1888 202.485 89.1888C202.723 89.1888 202.94 89.125 203.134 88.9975C203.334 88.8644 203.492 88.6869 203.608 88.465C203.725 88.2376 203.783 87.988 203.783 87.7162C203.783 87.4389 203.725 87.1893 203.608 86.9674C203.492 86.7456 203.334 86.5708 203.134 86.4433C202.94 86.3102 202.723 86.2436 202.485 86.2436C202.241 86.2436 202.022 86.3102 201.828 86.4433C201.634 86.5764 201.478 86.7539 201.362 86.9757C201.245 87.1921 201.187 87.4417 201.187 87.7245ZM207.024 89.8877V86.3434H205.585V85.5364H209.387V86.3434H207.939V89.8877H207.024ZM210.529 89.8877V85.5364H211.435V87.2586H211.868L213.149 85.5364H214.164L212.575 87.6413L214.347 89.8877H213.291L211.86 88.0823H211.435V89.8877H210.529ZM215.504 89.8877V85.5447H216.419V88.6647L218.624 85.5364H219.455V89.8877H218.54V86.8343L216.361 89.8877H215.504Z" fill="white"/>
</svg>
