<svg width="22" height="22" viewBox="0 0 22 22" fill="none" xmlns="http://www.w3.org/2000/svg">
<g clip-path="url(#clip0_804_41593)">
<path d="M6.41663 16.5C5.40371 16.5 4.59246 17.3205 4.59246 18.3334C4.59246 19.3463 5.40371 20.1667 6.41663 20.1667C7.42954 20.1667 8.24996 19.3463 8.24996 18.3334C8.24996 17.3205 7.42954 16.5 6.41663 16.5ZM0.916626 1.83337V3.66671H2.74996L6.04538 10.6196L4.80788 12.8655C4.66579 13.1313 4.58329 13.4292 4.58329 13.75C4.58329 14.763 5.40371 15.5834 6.41663 15.5834H17.4166V13.75H6.80621C6.67788 13.75 6.57704 13.6492 6.57704 13.5209C6.57704 13.4796 6.58621 13.443 6.60454 13.4109L7.42496 11.9167H14.2541C14.9416 11.9167 15.542 11.5363 15.8583 10.9725L19.1354 5.02337C19.2087 4.89504 19.25 4.74379 19.25 4.58337C19.25 4.07462 18.8375 3.66671 18.3333 3.66671H4.78038L3.90954 1.83337H0.916626ZM15.5833 16.5C14.5704 16.5 13.7591 17.3205 13.7591 18.3334C13.7591 19.3463 14.5704 20.1667 15.5833 20.1667C16.5962 20.1667 17.4166 19.3463 17.4166 18.3334C17.4166 17.3205 16.5962 16.5 15.5833 16.5Z" fill="white"/>
</g>
<defs>
<clipPath id="clip0_804_41593">
<rect width="22" height="22" fill="white"/>
</clipPath>
</defs>
</svg>
