<svg width="22" height="22" viewBox="0 0 22 22" fill="none" xmlns="http://www.w3.org/2000/svg">
<path d="M16.4736 11.4275C16.4736 15.2145 13.4575 18.2846 9.73682 18.2846C6.01618 18.2846 3 15.2145 3 11.4275C3 7.64045 6.01618 4.57043 9.73682 4.57043C13.4575 4.57043 16.4736 7.64045 16.4736 11.4275ZM5.01731 11.4275C5.01731 14.0805 7.13031 16.2312 9.73682 16.2312C12.3433 16.2312 14.4563 14.0805 14.4563 11.4275C14.4563 8.77446 12.3433 6.62375 9.73682 6.62375C7.13031 6.62375 5.01731 8.77446 5.01731 11.4275Z" fill="white"/>
<ellipse cx="6.36841" cy="16.5712" rx="3.36841" ry="3.42853" fill="white"/>
<ellipse cx="6.36841" cy="5.42853" rx="3.36841" ry="3.42853" fill="white"/>
<ellipse cx="15.6321" cy="11.4283" rx="3.36841" ry="3.42853" fill="white"/>
</svg>
