<svg width="22" height="22" viewBox="0 0 22 22" fill="none" xmlns="http://www.w3.org/2000/svg">
<g clip-path="url(#clip0_804_39142)">
<path d="M20.1031 9.93504L18.2876 10.1474C18.4988 12.0087 18.0091 13.9586 16.7527 15.5478C14.2401 18.7262 9.63053 19.2655 6.45209 16.7528C3.27365 14.2401 2.73441 9.63058 5.24708 6.45214C7.56647 3.5182 11.6698 2.83587 14.7888 4.72899L13.6405 6.18158C11.3254 4.91228 8.37367 5.45336 6.68529 7.5891C4.80362 9.96933 5.20881 13.4329 7.58904 15.3146C9.96928 17.1963 13.4329 16.7911 15.3145 14.4108C16.2582 13.2171 16.6291 11.7576 16.4593 10.3613L14.6438 10.5737C14.7465 11.5079 14.5017 12.4829 13.8763 13.2739C12.62 14.8631 10.3152 15.1327 8.726 13.8764C7.13678 12.62 6.86716 10.3153 8.12349 8.72605C9.18086 7.38852 10.9825 7.00156 12.4751 7.65575L11.2586 9.19463C10.6282 9.10523 9.98238 9.33087 9.5617 9.86301C8.93638 10.654 9.07194 11.8128 9.86295 12.4382C10.654 13.0635 11.8128 12.9279 12.4381 12.1369C12.8588 11.6048 12.935 10.9172 12.6968 10.3316L17.4038 4.3774L16.6847 3.80893C12.7152 0.670927 6.94687 1.34573 3.80887 5.31518C0.670872 9.28464 1.34568 15.053 5.31513 18.191C9.28458 21.329 15.053 20.6542 18.191 16.6847C19.7599 14.7 20.3757 12.2656 20.1031 9.93504Z" fill="white"/>
</g>
<defs>
<clipPath id="clip0_804_39142">
<rect width="22" height="22" fill="white"/>
</clipPath>
</defs>
</svg>
