<svg width="1660" height="1080" viewBox="0 0 1660 1080" fill="none" xmlns="http://www.w3.org/2000/svg">
<path d="M163.277 1035.34L157.794 1055.01L163.933 1053.58L167.838 1040.33C170.77 1044.73 172.088 1050.01 171.566 1055.27C171.045 1060.53 168.717 1065.45 164.978 1069.19C161.24 1072.93 156.321 1075.25 151.059 1075.77C145.798 1076.3 140.518 1074.98 136.118 1072.05L149.38 1068.02L150.802 1062L131.128 1067.49C130.009 1066.13 129.054 1064.64 128.281 1063.06L152.271 1056.51L158.847 1032.49C160.429 1033.26 161.915 1034.22 163.274 1035.34L163.277 1035.34Z" fill="#737D89"/>
<path d="M132.65 1036.85L126.629 1058.54L135.595 1049.57L140.708 1054.68L148.255 1052.62L150.374 1044.88L145.332 1039.83L154.18 1030.99L154.232 1030.8L132.65 1036.85Z" fill="#737D89"/>
<path d="M227.576 971.045L222.094 990.719L228.233 989.284L232.138 976.033C235.07 980.432 236.388 985.712 235.866 990.974C235.345 996.235 233.017 1001.15 229.278 1004.89C225.539 1008.63 220.621 1010.96 215.359 1011.48C210.097 1012 204.818 1010.68 200.418 1007.75L213.68 1003.72L215.102 997.711L195.428 1003.19C194.309 1001.83 193.353 1000.35 192.581 998.767L216.57 992.212L223.147 968.196C224.729 968.968 226.215 969.923 227.574 971.042L227.576 971.045Z" fill="#737D89"/>
<path d="M196.947 972.551L190.926 994.24L199.892 985.274L205.005 990.387L212.552 988.32L214.671 980.579L209.629 975.537L218.477 966.688L218.529 966.5L196.947 972.551Z" fill="#737D89"/>
<path d="M291.872 906.743L286.39 926.417L292.529 924.982L296.433 911.731C299.366 916.131 300.683 921.41 300.162 926.672C299.641 931.934 297.313 936.852 293.574 940.591C289.835 944.33 284.917 946.658 279.655 947.179C274.393 947.7 269.114 946.383 264.714 943.45L277.976 939.42L279.398 933.409L259.724 938.892C258.605 937.533 257.649 936.047 256.877 934.465L280.866 927.91L287.443 903.894C289.025 904.666 290.51 905.622 291.87 906.74L291.872 906.743Z" fill="#737D89"/>
<path d="M261.246 908.253L255.225 929.942L264.191 920.976L269.304 926.09L276.851 924.022L278.97 916.281L273.928 911.239L282.776 902.391L282.828 902.202L261.246 908.253Z" fill="#737D89"/>
<path d="M356.172 842.45L350.69 862.124L356.828 860.688L360.733 847.437C363.666 851.837 364.983 857.117 364.462 862.378C363.941 867.64 361.613 872.559 357.874 876.297C354.135 880.036 349.216 882.364 343.955 882.886C338.693 883.407 333.413 882.089 329.014 879.157L342.276 875.126L343.698 869.116L324.023 874.599C322.904 873.239 321.949 871.753 321.177 870.171L345.166 863.617L351.742 839.6C353.324 840.373 354.81 841.328 356.169 842.447L356.172 842.45Z" fill="#737D89"/>
<path d="M325.544 843.96L319.522 865.649L328.488 856.683L333.602 861.796L341.149 859.729L343.268 851.988L338.226 846.946L347.074 838.097L347.126 837.909L325.544 843.96Z" fill="#737D89"/>
<path d="M420.468 778.15L414.986 797.824L421.124 796.389L425.029 783.138C427.962 787.537 429.279 792.817 428.758 798.079C428.237 803.34 425.908 808.259 422.17 811.998C418.431 815.736 413.512 818.064 408.251 818.586C402.989 819.107 397.709 817.789 393.31 814.857L406.572 810.826L407.994 804.816L388.319 810.299C387.2 808.94 386.245 807.454 385.473 805.872L409.462 799.317L416.038 775.301C417.62 776.073 419.106 777.028 420.465 778.147L420.468 778.15Z" fill="#737D89"/>
<path d="M389.839 779.658L383.818 801.347L392.784 792.381L397.898 797.494L405.444 795.427L407.564 787.686L402.521 782.644L411.37 773.795L411.422 773.607L389.839 779.658Z" fill="#737D89"/>
<path d="M484.766 713.852L479.283 733.527L485.422 732.091L489.327 718.84C492.259 723.24 493.577 728.519 493.056 733.781C492.534 739.043 490.206 743.961 486.468 747.7C482.729 751.439 477.81 753.767 472.549 754.288C467.287 754.809 462.007 753.492 457.607 750.559L470.869 746.529L472.291 740.519L452.617 746.001C451.498 744.642 450.543 743.156 449.771 741.574L473.76 735.02L480.336 711.003C481.918 711.775 483.404 712.731 484.763 713.85L484.766 713.852Z" fill="#737D89"/>
<path d="M454.136 715.356L448.115 737.045L457.081 728.079L462.195 733.192L469.741 731.125L471.861 723.384L466.818 718.342L475.667 709.494L475.719 709.305L454.136 715.356Z" fill="#737D89"/>
<path d="M549.063 649.552L543.58 669.227L549.719 667.791L553.624 654.54C556.556 658.94 557.874 664.22 557.353 669.481C556.831 674.743 554.503 679.661 550.764 683.4C547.026 687.139 542.107 689.467 536.845 689.988C531.584 690.51 526.304 689.192 521.904 686.26L535.166 682.229L536.588 676.219L516.914 681.701C515.795 680.342 514.84 678.856 514.067 677.274L538.057 670.72L544.633 646.703C546.215 647.475 547.701 648.431 549.06 649.55L549.063 649.552Z" fill="#737D89"/>
<path d="M518.434 651.06L512.413 672.75L521.379 663.783L526.492 668.897L534.039 666.83L536.158 659.089L531.116 654.046L539.965 645.198L540.017 645.009L518.434 651.06Z" fill="#737D89"/>
<path d="M613.362 585.257L607.879 604.931L614.018 603.496L617.923 590.245C620.855 594.644 622.173 599.924 621.651 605.186C621.13 610.447 618.802 615.366 615.063 619.105C611.325 622.844 606.406 625.172 601.144 625.693C595.883 626.214 590.603 624.897 586.203 621.964L599.465 617.934L600.887 611.923L581.213 617.406C580.094 616.047 579.139 614.561 578.366 612.979L602.355 606.424L608.932 582.408C610.514 583.18 612 584.135 613.359 585.254L613.362 585.257Z" fill="#737D89"/>
<path d="M582.733 586.765L576.712 608.454L585.678 599.488L590.791 604.601L598.338 602.534L600.457 594.793L595.415 589.751L604.263 580.903L604.315 580.714L582.733 586.765Z" fill="#737D89"/>
<path d="M677.659 520.959L672.177 540.634L678.316 539.198L682.221 525.947C685.153 530.347 686.471 535.626 685.949 540.888C685.428 546.15 683.1 551.068 679.361 554.807C675.622 558.546 670.704 560.874 665.442 561.395C660.18 561.916 654.901 560.599 650.501 557.666L663.763 553.636L665.185 547.625L645.511 553.108C644.392 551.749 643.436 550.263 642.664 548.681L666.653 542.127L673.23 518.11C674.812 518.882 676.298 519.838 677.657 520.956L677.659 520.959Z" fill="#737D89"/>
<path d="M647.032 522.467L641.011 544.156L649.977 535.19L655.09 540.304L662.637 538.236L664.756 530.495L659.714 525.453L668.562 516.605L668.614 516.416L647.032 522.467Z" fill="#737D89"/>
<path d="M741.958 456.664L736.476 476.338L742.615 474.903L746.519 461.651C749.452 466.051 750.769 471.331 750.248 476.593C749.727 481.854 747.399 486.773 743.66 490.512C739.921 494.25 735.003 496.578 729.741 497.1C724.479 497.621 719.2 496.303 714.8 493.371L728.062 489.34L729.484 483.33L709.809 488.813C708.691 487.453 707.735 485.968 706.963 484.386L730.952 477.831L737.529 453.815C739.111 454.587 740.596 455.542 741.956 456.661L741.958 456.664Z" fill="#737D89"/>
<path d="M711.33 458.174L705.309 479.863L714.275 470.897L719.388 476.01L726.935 473.943L729.054 466.202L724.012 461.16L732.86 452.311L732.912 452.123L711.33 458.174Z" fill="#737D89"/>
<path d="M806.253 392.362L800.771 412.036L806.909 410.601L810.814 397.349C813.747 401.749 815.064 407.029 814.543 412.291C814.022 417.552 811.694 422.471 807.955 426.21C804.216 429.948 799.298 432.276 794.036 432.798C788.774 433.319 783.494 432.001 779.095 429.069L792.357 425.038L793.779 419.028L774.104 424.511C772.986 423.151 772.03 421.666 771.258 420.084L795.247 413.529L801.823 389.513C803.405 390.285 804.891 391.24 806.25 392.359L806.253 392.362Z" fill="#737D89"/>
<path d="M775.627 393.87L769.605 415.559L778.571 406.593L783.685 411.706L791.232 409.639L793.351 401.898L788.309 396.856L797.157 388.007L797.209 387.819L775.627 393.87Z" fill="#737D89"/>
<path d="M870.551 328.064L865.069 347.738L871.207 346.303L875.112 333.052C878.045 337.451 879.362 342.731 878.841 347.993C878.32 353.254 875.991 358.173 872.253 361.912C868.514 365.65 863.595 367.979 858.334 368.5C853.072 369.021 847.792 367.704 843.393 364.771L856.655 360.741L858.077 354.73L838.402 360.213C837.283 358.854 836.328 357.368 835.556 355.786L859.545 349.231L866.121 325.215C867.703 325.987 869.189 326.942 870.548 328.061L870.551 328.064Z" fill="#737D89"/>
<path d="M839.922 329.572L833.901 351.261L842.867 342.295L847.981 347.408L855.527 345.341L857.647 337.6L852.604 332.558L861.453 323.709L861.505 323.521L839.922 329.572Z" fill="#737D89"/>
<path d="M934.849 263.767L929.366 283.441L935.505 282.005L939.41 268.754C942.342 273.154 943.66 278.434 943.139 283.695C942.617 288.957 940.289 293.876 936.551 297.614C932.812 301.353 927.893 303.681 922.632 304.202C917.37 304.724 912.09 303.406 907.69 300.474L920.952 296.443L922.374 290.433L902.7 295.915C901.581 294.556 900.626 293.07 899.854 291.488L923.843 284.934L930.419 260.917C932.001 261.69 933.487 262.645 934.846 263.764L934.849 263.767Z" fill="#737D89"/>
<path d="M904.222 265.277L898.201 286.966L907.167 278L912.28 283.113L919.827 281.046L921.946 273.305L916.904 268.262L925.753 259.414L925.805 259.225L904.222 265.277Z" fill="#737D89"/>
<path d="M999.147 199.471L993.664 219.145L999.803 217.71L1003.71 204.459C1006.64 208.858 1007.96 214.138 1007.44 219.4C1006.92 224.661 1004.59 229.58 1000.85 233.319C997.11 237.057 992.191 239.385 986.929 239.907C981.668 240.428 976.388 239.111 971.988 236.178L985.25 232.148L986.672 226.137L966.998 231.62C965.879 230.261 964.924 228.775 964.151 227.193L988.141 220.638L994.717 196.622C996.299 197.394 997.785 198.349 999.144 199.468L999.147 199.471Z" fill="#737D89"/>
<path d="M968.519 200.981L962.498 222.67L971.464 213.704L976.577 218.817L984.124 216.75L986.243 209.009L981.201 203.967L990.05 195.119L990.102 194.93L968.519 200.981Z" fill="#737D89"/>
<path d="M1063.45 135.175L1057.96 154.85L1064.1 153.414L1068.01 140.163C1070.94 144.563 1072.26 149.842 1071.74 155.104C1071.21 160.366 1068.89 165.284 1065.15 169.023C1061.41 172.762 1056.49 175.09 1051.23 175.611C1045.97 176.132 1040.69 174.815 1036.29 171.882L1049.55 167.852L1050.97 161.842L1031.3 167.324C1030.18 165.965 1029.22 164.479 1028.45 162.897L1052.44 156.343L1059.02 132.326C1060.6 133.098 1062.08 134.054 1063.44 135.173L1063.45 135.175Z" fill="#737D89"/>
<path d="M1032.82 136.685L1026.8 158.374L1035.76 149.408L1040.88 154.521L1048.42 152.454L1050.54 144.713L1045.5 139.671L1054.35 130.822L1054.4 130.634L1032.82 136.685Z" fill="#737D89"/>
<path d="M1127.74 70.8777L1122.26 90.552L1128.4 89.1164L1132.3 75.8653C1135.24 80.265 1136.55 85.5448 1136.03 90.8064C1135.51 96.0681 1133.18 100.987 1129.45 104.725C1125.71 108.464 1120.79 110.792 1115.53 111.314C1110.26 111.835 1104.98 110.517 1100.58 107.585L1113.85 103.554L1115.27 97.5439L1095.59 103.027C1094.48 101.667 1093.52 100.181 1092.75 98.5994L1116.74 92.045L1123.31 68.0284C1124.9 68.8007 1126.38 69.7561 1127.74 70.8749L1127.74 70.8777Z" fill="#737D89"/>
<path d="M1097.12 72.3874L1091.09 94.0764L1100.06 85.1104L1105.17 90.2237L1112.72 88.1565L1114.84 80.4155L1109.8 75.3733L1118.65 66.5249L1118.7 66.3362L1097.12 72.3874Z" fill="#737D89"/>
<path d="M1192.04 6.58006L1186.56 26.2544L1192.7 24.8188L1196.6 11.5677C1199.53 15.9674 1200.85 21.2472 1200.33 26.5088C1199.81 31.7705 1197.48 36.689 1193.74 40.4278C1190 44.1666 1185.08 46.4946 1179.82 47.0159C1174.56 47.5373 1169.28 46.2196 1164.88 43.2872L1178.14 39.2566L1179.57 33.2463L1159.89 38.7289C1158.77 37.3697 1157.82 35.8839 1157.04 34.3018L1181.03 27.7474L1187.61 3.73077C1189.19 4.50306 1190.68 5.45845 1192.04 6.57732L1192.04 6.58006Z" fill="#737D89"/>
<path d="M1161.41 8.08976L1155.39 29.7788L1164.36 20.8128L1169.47 25.9261L1177.02 23.8589L1179.14 16.1179L1174.1 11.0757L1182.94 2.22727L1183 2.0386L1161.41 8.08976Z" fill="#737D89"/>
</svg>
